<svg xmlns="http://www.w3.org/2000/svg" xmlns:xlink="http://www.w3.org/1999/xlink" width="512" height="512" viewBox="0 0 512 512"><defs><clipPath id="b"><rect width="512" height="512"/></clipPath></defs><g id="a" clip-path="url(#b)"><path d="M132.9,294.885A185.706,185.706,0,0,1,88.43,277.571C75.383,288.487,60.458,294.5,46.406,294.5a43.73,43.73,0,0,1-22.417-5.932A44.481,44.481,0,0,1,7.97,272.281a55.074,55.074,0,0,1-4.818-10.923,65.79,65.79,0,0,1-2.631-12.27A82.033,82.033,0,0,1,2,222.025a98.669,98.669,0,0,1,10.771-27.894,101.532,101.532,0,0,1,8.271-12.349c-.077-1.569-.116-3.168-.116-4.751a97.393,97.393,0,0,1,8.637-39.946,117.461,117.461,0,0,1,24.01-34.54,39.014,39.014,0,0,1-3.74-16.6c0-10.283,4.1-20.148,11.847-28.527a27.488,27.488,0,0,1-7.917-5.162,33.892,33.892,0,0,1-6.521-8.245,34.3,34.3,0,0,1-3.747-9.7,28.519,28.519,0,0,1-.515-9.413,20.791,20.791,0,0,1,2.59-8.067,15.476,15.476,0,0,1,5.571-5.665,15.214,15.214,0,0,1,7.8-2.063,20.059,20.059,0,0,1,7.83,1.682,27.4,27.4,0,0,1,7.48,4.8c.107-.2.2-.368.292-.523C79.748,5.911,88.46,0,96.738,0a15.209,15.209,0,0,1,7.8,2.063,15.467,15.467,0,0,1,5.572,5.665A20.776,20.776,0,0,1,112.7,15.8a28.539,28.539,0,0,1-.515,9.413,34.341,34.341,0,0,1-3.747,9.7c-.337.591-.694,1.179-1.062,1.747,2.543-.226,5.131-.34,7.69-.34a85.46,85.46,0,0,1,14.489,1.228A79.527,79.527,0,0,1,142.9,41.051a71.586,71.586,0,0,1,11.861,5.513,61.747,61.747,0,0,1,10.015,7.251c6.328-.566,12.794-.852,19.22-.852a214.358,214.358,0,0,1,32.865,2.52,201.365,201.365,0,0,1,30.61,7.229,184.212,184.212,0,0,1,27.7,11.439A162.959,162.959,0,0,1,299.311,89.3a139.994,139.994,0,0,1,19.913,18.362,118.84,118.84,0,0,1,15.035,21.075,103.227,103.227,0,0,1,9.5,23.289,96.3,96.3,0,0,1,3.313,25c0,1.575-.039,3.174-.117,4.752a101.489,101.489,0,0,1,8.27,12.348A98.669,98.669,0,0,1,366,222.025a82.013,82.013,0,0,1,1.48,27.063,65.835,65.835,0,0,1-2.63,12.27,55.114,55.114,0,0,1-4.819,10.923,44.473,44.473,0,0,1-16.018,16.286A43.741,43.741,0,0,1,321.6,294.5c-14.053,0-28.979-6.012-42.028-16.927A185.671,185.671,0,0,1,235.1,294.885a213.26,213.26,0,0,1-102.2,0Zm54.115-2.079a190.613,190.613,0,0,0,55.2-8.852V163.948c-17.511-5.679-36.362-9.715-55.2-10.159ZM125.387,163.823v120a190.434,190.434,0,0,0,55.2,8.975V153.78C161.743,154.168,142.9,158.167,125.387,163.823ZM248.641,281.755a156.912,156.912,0,0,0,41.445-22.36q.4-.308.805-.617c22.284-19.428,32.769-45.048,35.509-52.608-7.857-5.5-38.969-26.357-77.759-40.045ZM40.8,206.311a99.032,99.032,0,0,0,14.6,31.246A126.206,126.206,0,0,0,77.914,259.4a156.77,156.77,0,0,0,41.042,22.212V165.994C79.706,179.8,48.3,201.023,40.8,206.311Zm290.241-4.776a88.81,88.81,0,0,0,2.989-22.851c0-30.488-15.606-59.151-43.942-80.711S224.074,64.543,184,64.543,106.25,76.415,77.914,97.974,33.972,148.2,33.972,178.685a88.767,88.767,0,0,0,2.894,22.489c11.383-8.149,78.333-53.891,146.719-53.891C253.066,147.283,321.27,194.5,331.039,201.535ZM61.655,147.487c-1.892-10.8,3.058-20.714,11.055-22.135s16.014,6.187,17.9,16.991-3.058,20.714-11.055,22.135a11.056,11.056,0,0,1-1.935.171C70.307,164.649,63.393,157.418,61.655,147.487Zm226.792,16.955c-7.972-1.415-12.9-11.306-11.015-22.09s9.881-18.38,17.852-16.964,12.9,11.306,11.015,22.09c-1.736,9.914-8.631,17.134-15.925,17.134A11,11,0,0,1,288.447,164.442Z" transform="translate(72 105.451)"/></g></svg>